<svg xmlns="http://www.w3.org/2000/svg" xmlns:xlink="http://www.w3.org/1999/xlink" width="300" zoomAndPan="magnify" viewBox="0 0 224.87999 225" height="300" preserveAspectRatio="xMidYMid meet" version="1.0"><defs><clipPath id="56d3d828bd"><path d="M 10.796875 12.652344 L 213.9375 12.652344 L 213.9375 215.046875 L 10.796875 215.046875 Z M 10.796875 12.652344 " clip-rule="nonzero"/></clipPath></defs><path fill="#050017" d="M 212.910156 114.003906 C 212.910156 169.585938 167.851562 214.640625 112.273438 214.640625 C 56.691406 214.640625 11.632812 169.585938 11.632812 114.003906 C 11.632812 58.417969 56.691406 13.363281 112.273438 13.363281 C 167.851562 13.363281 212.910156 58.417969 212.910156 114.003906 " fill-opacity="1" fill-rule="nonzero"/><g clip-path="url(#56d3d828bd)"><path fill="#01f7a6" d="M 212.910156 114.003906 L 212.210938 114.003906 C 212.210938 141.601562 201.023438 166.582031 182.9375 184.667969 C 164.851562 202.753906 139.871094 213.9375 112.273438 213.9375 C 84.671875 213.9375 59.695312 202.753906 41.605469 184.667969 C 23.519531 166.582031 12.335938 141.601562 12.335938 114.003906 C 12.335938 86.402344 23.519531 61.421875 41.605469 43.335938 C 59.695312 25.25 84.671875 14.066406 112.273438 14.066406 C 139.871094 14.066406 164.851562 25.25 182.9375 43.335938 C 201.023438 61.421875 212.210938 86.402344 212.210938 114.003906 L 213.613281 114.003906 C 213.613281 58.03125 168.238281 12.664062 112.273438 12.660156 C 56.300781 12.664062 10.933594 58.03125 10.929688 114.003906 C 10.933594 169.972656 56.300781 215.34375 112.273438 215.34375 C 168.238281 215.34375 213.613281 169.972656 213.613281 114.003906 L 212.910156 114.003906 " fill-opacity="1" fill-rule="nonzero"/></g><path fill="#01f7a6" d="M 98.070312 43.453125 L 126.472656 43.453125 L 132.140625 15.332031 C 125.714844 14.046875 119.074219 13.363281 112.273438 13.363281 C 105.464844 13.363281 98.828125 14.046875 92.40625 15.332031 L 98.070312 43.453125 " fill-opacity="1" fill-rule="nonzero"/><path fill="#01f7a6" d="M 126.472656 184.550781 L 98.070312 184.550781 L 92.40625 212.671875 C 98.828125 213.957031 105.464844 214.640625 112.273438 214.640625 C 119.074219 214.640625 125.714844 213.957031 132.140625 212.671875 L 126.472656 184.550781 " fill-opacity="1" fill-rule="nonzero"/><path fill="#01f7a6" d="M 41.722656 128.203125 L 41.722656 99.804688 L 13.605469 94.136719 C 12.316406 100.558594 11.632812 107.199219 11.632812 114.003906 C 11.632812 120.804688 12.316406 127.445312 13.605469 133.871094 L 41.722656 128.203125 " fill-opacity="1" fill-rule="nonzero"/><path fill="#01f7a6" d="M 182.824219 99.804688 L 182.824219 128.203125 L 210.9375 133.871094 C 212.226562 127.445312 212.910156 120.804688 212.910156 114.003906 C 212.910156 107.199219 212.226562 100.558594 210.9375 94.136719 L 182.824219 99.804688 " fill-opacity="1" fill-rule="nonzero"/><path fill="#01f7a6" d="M 28.464844 58.289062 L 52.347656 74.160156 L 72.429688 54.078125 L 56.558594 30.195312 C 45.4375 37.605469 35.875 47.164062 28.464844 58.289062 " fill-opacity="1" fill-rule="nonzero"/><path fill="#01f7a6" d="M 196.078125 169.714844 L 172.195312 153.847656 L 152.113281 173.929688 L 167.988281 197.808594 C 179.109375 190.398438 188.667969 180.839844 196.078125 169.714844 " fill-opacity="1" fill-rule="nonzero"/><path fill="#01f7a6" d="M 28.464844 169.714844 C 35.875 180.839844 45.4375 190.398438 56.558594 197.808594 L 72.429688 173.929688 L 52.347656 153.847656 L 28.464844 169.714844 " fill-opacity="1" fill-rule="nonzero"/><path fill="#01f7a6" d="M 167.988281 30.195312 L 152.113281 54.078125 L 172.195312 74.160156 L 196.078125 58.289062 C 188.667969 47.164062 179.109375 37.605469 167.988281 30.195312 " fill-opacity="1" fill-rule="nonzero"/><path fill="#050017" d="M 182.59375 114.003906 C 182.59375 152.839844 151.109375 184.320312 112.273438 184.320312 C 73.433594 184.320312 41.957031 152.839844 41.957031 114.003906 C 41.957031 75.167969 73.433594 43.683594 112.273438 43.683594 C 151.109375 43.683594 182.59375 75.167969 182.59375 114.003906 " fill-opacity="1" fill-rule="nonzero"/><path fill="#01f7a6" d="M 182.59375 114.003906 L 181.101562 114.003906 C 181.101562 133.011719 173.398438 150.210938 160.945312 162.671875 C 148.484375 175.128906 131.285156 182.832031 112.273438 182.832031 C 93.257812 182.832031 76.0625 175.128906 63.601562 162.671875 C 51.148438 150.210938 43.445312 133.015625 43.445312 114.003906 C 43.445312 94.992188 51.148438 77.792969 63.601562 65.332031 C 76.0625 52.875 93.257812 45.171875 112.273438 45.171875 C 131.285156 45.171875 148.484375 52.875 160.945312 65.332031 C 173.398438 77.792969 181.101562 94.992188 181.101562 114.003906 L 184.082031 114.003906 C 184.078125 74.34375 151.933594 42.195312 112.273438 42.195312 C 72.609375 42.195312 40.46875 74.34375 40.46875 114.003906 C 40.46875 153.664062 72.609375 185.808594 112.273438 185.808594 C 151.933594 185.808594 184.078125 153.664062 184.082031 114.003906 L 182.59375 114.003906 " fill-opacity="1" fill-rule="nonzero"/><path fill="#050017" d="M 174.277344 114.003906 C 174.277344 148.25 146.519531 176.011719 112.273438 176.011719 C 78.027344 176.011719 50.269531 148.25 50.269531 114.003906 C 50.269531 79.757812 78.027344 51.996094 112.273438 51.996094 C 146.519531 51.996094 174.277344 79.757812 174.277344 114.003906 " fill-opacity="1" fill-rule="nonzero"/><path fill="#01f7a6" d="M 174.277344 114.003906 L 173.855469 114.003906 C 173.855469 131.011719 166.964844 146.40625 155.820312 157.550781 C 144.675781 168.695312 129.28125 175.585938 112.273438 175.585938 C 95.261719 175.585938 79.871094 168.695312 68.726562 157.550781 C 57.582031 146.40625 50.691406 131.011719 50.691406 114.003906 C 50.691406 96.996094 57.582031 81.601562 68.726562 70.457031 C 79.871094 59.308594 95.261719 52.417969 112.273438 52.417969 C 129.28125 52.417969 144.675781 59.308594 155.820312 70.457031 C 166.964844 81.601562 173.855469 96.996094 173.855469 114.003906 L 174.695312 114.003906 C 174.695312 79.527344 146.75 51.578125 112.273438 51.578125 C 77.796875 51.578125 49.851562 79.527344 49.851562 114.003906 C 49.851562 148.480469 77.796875 176.429688 112.273438 176.429688 C 146.75 176.429688 174.695312 148.480469 174.695312 114.003906 L 174.277344 114.003906 " fill-opacity="1" fill-rule="nonzero"/></svg>