<svg xmlns="http://www.w3.org/2000/svg" xmlns:xlink="http://www.w3.org/1999/xlink" width="300" zoomAndPan="magnify" viewBox="0 0 224.87999 225" height="300" preserveAspectRatio="xMidYMid meet" version="1.0"><defs><clipPath id="f790da4c4b"><path d="M 40.441406 134 L 175.207031 134 L 175.207031 171.527344 L 40.441406 171.527344 Z M 40.441406 134 " clip-rule="nonzero"/></clipPath><clipPath id="029d1a6c91"><path d="M 40.214844 121 L 176 121 L 176 159 L 40.214844 159 Z M 40.214844 121 " clip-rule="nonzero"/></clipPath><clipPath id="8f34e0643c"><path d="M 40.214844 102 L 176 102 L 176 140 L 40.214844 140 Z M 40.214844 102 " clip-rule="nonzero"/></clipPath><clipPath id="c33b7e86bf"><path d="M 40.214844 89 L 176 89 L 176 127 L 40.214844 127 Z M 40.214844 89 " clip-rule="nonzero"/></clipPath><clipPath id="6e0b0cfd4e"><path d="M 49.425781 81 L 184.441406 81 L 184.441406 118.691406 L 49.425781 118.691406 Z M 49.425781 81 " clip-rule="nonzero"/></clipPath><clipPath id="951103ff45"><path d="M 49.425781 67.910156 L 184.441406 67.910156 L 184.441406 105.410156 L 49.425781 105.410156 Z M 49.425781 67.910156 " clip-rule="nonzero"/></clipPath><clipPath id="0ac633d680"><path d="M 40.214844 66 L 176 66 L 176 104 L 40.214844 104 Z M 40.214844 66 " clip-rule="nonzero"/></clipPath><clipPath id="d8267c2bb9"><path d="M 40.214844 53.457031 L 176 53.457031 L 176 91 L 40.214844 91 Z M 40.214844 53.457031 " clip-rule="nonzero"/></clipPath></defs><path fill="#dd4400" d="M 107.804688 134.929688 C 134.59375 134.929688 157.671875 139.21875 168.152344 145.390625 L 169.75 140.449219 L 174.410156 139.761719 L 174.410156 152.945312 L 174.15625 152.957031 C 173.945312 162.804688 144.320312 170.773438 107.804688 170.773438 C 72.066406 170.773438 42.933594 163.140625 41.511719 153.582031 L 41.199219 153.628906 L 41.199219 139.761719 L 48.792969 144.652344 C 59.8125 138.878906 82.101562 134.929688 107.804688 134.929688 " fill-opacity="1" fill-rule="evenodd"/><g clip-path="url(#f790da4c4b)"><path fill="#02002b" d="M 107.804688 134.175781 C 121.027344 134.175781 133.351562 135.21875 143.71875 137.015625 C 153.941406 138.789062 162.277344 141.300781 167.71875 144.28125 L 169.03125 140.21875 L 169.75 140.449219 L 169.03125 140.21875 C 169.125 139.921875 169.386719 139.726562 169.675781 139.699219 L 174.300781 139.015625 C 174.714844 138.953125 175.097656 139.238281 175.15625 139.652344 C 175.164062 139.6875 175.167969 139.726562 175.167969 139.761719 L 175.167969 152.945312 C 175.167969 153.195312 175.046875 153.414062 174.863281 153.550781 C 174.222656 158.617188 166.664062 163.097656 154.777344 166.289062 C 142.722656 169.527344 126.121094 171.527344 107.804688 171.527344 C 89.917969 171.527344 73.664062 169.617188 61.675781 166.511719 C 49.910156 163.457031 42.183594 159.179688 40.898438 154.320312 C 40.664062 154.21875 40.488281 154.003906 40.449219 153.738281 C 40.445312 153.699219 40.441406 153.664062 40.441406 153.628906 L 40.441406 139.761719 C 40.441406 139.34375 40.78125 139.007812 41.199219 139.007812 C 41.367188 139.007812 41.523438 139.0625 41.648438 139.15625 L 48.835938 143.785156 C 54.511719 140.898438 62.949219 138.484375 73.1875 136.796875 C 83.285156 135.136719 95.136719 134.175781 107.804688 134.175781 Z M 143.464844 138.5 C 133.183594 136.71875 120.945312 135.6875 107.804688 135.6875 C 95.203125 135.6875 83.433594 136.632812 73.429688 138.28125 C 63.144531 139.976562 54.734375 142.402344 49.203125 145.285156 C 48.960938 145.441406 48.640625 145.453125 48.386719 145.285156 L 41.953125 141.144531 L 41.953125 152.972656 C 42.113281 153.085938 42.226562 153.261719 42.257812 153.472656 L 41.953125 153.515625 L 41.953125 153.519531 L 42.257812 153.472656 C 42.921875 157.933594 50.382812 162.027344 62.054688 165.050781 C 73.914062 168.128906 90.03125 170.015625 107.804688 170.015625 C 125.992188 170.015625 142.453125 168.035156 154.390625 164.832031 C 166.015625 161.710938 173.253906 157.519531 173.398438 152.988281 L 173.398438 152.984375 C 173.390625 152.75 173.492188 152.535156 173.65625 152.390625 L 173.65625 140.636719 L 170.320312 141.125 L 168.886719 145.5625 C 168.867188 145.636719 168.839844 145.707031 168.800781 145.773438 C 168.589844 146.132812 168.125 146.253906 167.769531 146.042969 L 167.769531 146.039062 C 162.523438 142.949219 154.039062 140.332031 143.464844 138.5 Z M 41.648438 139.15625 L 41.953125 139.761719 C 41.953125 139.515625 41.832031 139.292969 41.648438 139.15625 " fill-opacity="1" fill-rule="nonzero"/></g><path fill="#01f7a6" d="M 96.011719 157.402344 L 107.804688 157.402344 L 107.804688 170.015625 L 96.011719 169.734375 L 96.011719 157.402344 " fill-opacity="1" fill-rule="evenodd"/><path fill="#01f7a6" d="M 52.460938 149.734375 L 63.796875 152.824219 L 63.230469 165.359375 L 52.113281 161.808594 L 52.460938 149.734375 " fill-opacity="1" fill-rule="evenodd"/><path fill="#01f7a6" d="M 153.472656 152.851562 L 141.460938 155.265625 L 142.027344 167.453125 L 153.148438 165.15625 L 153.472656 152.851562 " fill-opacity="1" fill-rule="evenodd"/><path fill="#ff4e00" d="M 107.804688 157.679688 C 144.492188 157.679688 174.410156 149.632812 174.410156 139.761719 C 174.410156 129.890625 144.492188 121.839844 107.804688 121.839844 C 71.117188 121.839844 41.199219 129.890625 41.199219 139.761719 C 41.199219 149.632812 71.117188 157.679688 107.804688 157.679688 " fill-opacity="1" fill-rule="evenodd"/><g clip-path="url(#029d1a6c91)"><path fill="#02002b" d="M 107.804688 121.085938 C 126.261719 121.085938 142.984375 123.101562 155.097656 126.359375 C 167.496094 129.695312 175.167969 134.429688 175.167969 139.761719 C 175.167969 145.09375 167.496094 149.824219 155.097656 153.160156 C 142.984375 156.421875 126.261719 158.4375 107.804688 158.4375 C 89.347656 158.4375 72.625 156.421875 60.511719 153.160156 C 48.113281 149.824219 40.441406 145.09375 40.441406 139.761719 C 40.441406 134.429688 48.113281 129.695312 60.511719 126.359375 C 72.625 123.101562 89.347656 121.085938 107.804688 121.085938 Z M 154.707031 127.816406 C 142.714844 124.589844 126.132812 122.59375 107.804688 122.59375 C 89.476562 122.59375 72.894531 124.589844 60.898438 127.816406 C 49.195312 130.96875 41.953125 135.199219 41.953125 139.761719 C 41.953125 144.324219 49.195312 148.554688 60.898438 151.703125 C 72.894531 154.929688 89.476562 156.925781 107.804688 156.925781 C 126.132812 156.925781 142.714844 154.929688 154.707031 151.703125 C 166.414062 148.554688 173.65625 144.324219 173.65625 139.761719 C 173.65625 135.199219 166.414062 130.96875 154.707031 127.816406 " fill-opacity="1" fill-rule="nonzero"/></g><path fill="#dd4400" d="M 107.582031 149.71875 C 129.296875 149.71875 147.007812 145.246094 147.007812 139.761719 C 147.007812 134.277344 129.296875 129.804688 107.582031 129.804688 C 85.867188 129.804688 68.15625 134.277344 68.15625 139.761719 C 68.15625 145.246094 85.867188 149.71875 107.582031 149.71875 " fill-opacity="1" fill-rule="evenodd"/><path fill="#02002b" d="M 107.582031 129.050781 C 118.535156 129.050781 128.46875 130.175781 135.675781 131.996094 C 143.183594 133.894531 147.828125 136.628906 147.828125 139.761719 C 147.828125 142.890625 143.183594 145.628906 135.675781 147.527344 C 128.46875 149.347656 118.535156 150.472656 107.582031 150.472656 C 96.628906 150.472656 86.695312 149.347656 79.488281 147.527344 C 71.980469 145.628906 67.335938 142.890625 67.335938 139.761719 C 67.335938 136.628906 71.980469 133.894531 79.488281 131.996094 C 86.695312 130.175781 96.628906 129.050781 107.582031 129.050781 Z M 135.246094 133.445312 C 128.183594 131.664062 118.402344 130.558594 107.582031 130.558594 C 96.757812 130.558594 86.980469 131.664062 79.917969 133.445312 C 73.160156 135.152344 68.976562 137.394531 68.976562 139.761719 C 68.976562 142.128906 73.160156 144.371094 79.917969 146.074219 C 86.980469 147.859375 96.757812 148.960938 107.582031 148.960938 C 118.402344 148.960938 128.183594 147.859375 135.246094 146.074219 C 142.003906 144.371094 146.1875 142.128906 146.1875 139.761719 C 146.1875 137.394531 142.003906 135.152344 135.246094 133.445312 " fill-opacity="1" fill-rule="nonzero"/><path fill="#01f7a6" d="M 108.398438 122.339844 L 117.40625 125.695312 L 108.398438 129.054688 L 99.390625 125.695312 L 108.398438 122.339844 " fill-opacity="1" fill-rule="evenodd"/><path fill="#01f7a6" d="M 108.398438 150.03125 L 117.40625 153.390625 L 108.398438 156.746094 L 99.390625 153.390625 L 108.398438 150.03125 " fill-opacity="1" fill-rule="evenodd"/><path fill="#01f7a6" d="M 56.203125 135.707031 L 65.210938 139.449219 L 56.203125 143.191406 L 47.199219 139.449219 L 56.203125 135.707031 " fill-opacity="1" fill-rule="evenodd"/><path fill="#01f7a6" d="M 160.449219 135.707031 L 169.457031 139.449219 L 160.449219 143.191406 L 151.445312 139.449219 L 160.449219 135.707031 " fill-opacity="1" fill-rule="evenodd"/><path fill="#dd4400" d="M 115.113281 117.207031 C 141.902344 117.207031 164.980469 121.496094 175.457031 127.667969 L 177.058594 122.726562 L 181.71875 122.035156 L 181.71875 135.222656 L 181.460938 135.234375 C 181.25 145.082031 151.628906 153.046875 115.113281 153.046875 C 79.378906 153.046875 50.242188 145.417969 48.820312 135.859375 L 48.503906 135.902344 L 48.503906 122.035156 L 56.101562 126.925781 C 67.121094 121.15625 89.410156 117.207031 115.113281 117.207031 " fill-opacity="1" fill-rule="evenodd"/><path fill="#02002b" d="M 115.113281 116.453125 C 128.332031 116.453125 140.660156 117.496094 151.027344 119.289062 C 161.25 121.0625 169.589844 123.578125 175.027344 126.554688 L 176.339844 122.496094 L 177.058594 122.726562 L 176.339844 122.492188 C 176.433594 122.199219 176.695312 122.003906 176.984375 121.972656 L 181.609375 121.289062 C 182.023438 121.230469 182.40625 121.515625 182.464844 121.925781 C 182.472656 121.964844 182.472656 122 182.472656 122.035156 L 182.472656 135.222656 C 182.472656 135.46875 182.355469 135.6875 182.171875 135.828125 C 181.53125 140.890625 173.972656 145.371094 162.085938 148.5625 C 150.03125 151.800781 133.429688 153.800781 115.113281 153.800781 C 97.226562 153.800781 80.96875 151.890625 68.984375 148.785156 C 57.21875 145.734375 49.492188 141.453125 48.203125 136.597656 C 47.972656 136.496094 47.796875 136.28125 47.757812 136.011719 C 47.753906 135.976562 47.75 135.941406 47.75 135.902344 L 47.75 122.035156 C 47.75 121.621094 48.089844 121.28125 48.503906 121.28125 C 48.675781 121.28125 48.832031 121.335938 48.957031 121.429688 L 56.144531 126.058594 C 61.820312 123.175781 70.261719 120.757812 80.496094 119.074219 C 90.59375 117.410156 102.445312 116.453125 115.113281 116.453125 Z M 150.773438 120.777344 C 140.492188 118.996094 128.253906 117.960938 115.113281 117.960938 C 102.511719 117.960938 90.742188 118.910156 80.738281 120.558594 C 70.457031 122.25 62.042969 124.679688 56.511719 127.558594 C 56.269531 127.714844 55.949219 127.726562 55.691406 127.5625 L 55.691406 127.558594 L 49.261719 123.417969 L 49.261719 135.246094 C 49.421875 135.359375 49.535156 135.539062 49.566406 135.75 L 49.261719 135.792969 L 49.566406 135.75 C 50.230469 140.210938 57.691406 144.300781 69.363281 147.328125 C 81.21875 150.402344 97.339844 152.292969 115.113281 152.292969 C 133.304688 152.292969 149.761719 150.3125 161.695312 147.105469 C 173.320312 143.988281 180.5625 139.792969 180.707031 135.265625 L 180.707031 135.261719 C 180.699219 135.023438 180.800781 134.808594 180.964844 134.664062 L 180.964844 122.910156 L 177.628906 123.402344 L 176.195312 127.839844 C 176.175781 127.910156 176.148438 127.980469 176.109375 128.050781 C 175.898438 128.410156 175.433594 128.527344 175.074219 128.316406 L 175.078125 128.3125 C 169.832031 125.226562 161.347656 122.609375 150.773438 120.777344 Z M 48.957031 121.429688 L 49.261719 122.035156 C 49.261719 121.789062 49.140625 121.566406 48.957031 121.429688 " fill-opacity="1" fill-rule="nonzero"/><path fill="#01f7a6" d="M 103.320312 139.675781 L 115.113281 139.675781 L 115.113281 152.292969 L 103.320312 152.007812 L 103.320312 139.675781 " fill-opacity="1" fill-rule="evenodd"/><path fill="#01f7a6" d="M 59.769531 132.011719 L 71.105469 135.101562 L 70.539062 147.636719 L 59.421875 144.085938 L 59.769531 132.011719 " fill-opacity="1" fill-rule="evenodd"/><path fill="#01f7a6" d="M 160.78125 135.128906 L 148.769531 137.542969 L 149.332031 149.726562 L 160.457031 147.433594 L 160.78125 135.128906 " fill-opacity="1" fill-rule="evenodd"/><path fill="#ff4e00" d="M 115.113281 139.957031 C 151.796875 139.957031 181.71875 131.90625 181.71875 122.035156 C 181.71875 112.167969 151.796875 104.117188 115.113281 104.117188 C 78.425781 104.117188 48.503906 112.167969 48.503906 122.035156 C 48.503906 131.90625 78.425781 139.957031 115.113281 139.957031 " fill-opacity="1" fill-rule="evenodd"/><path fill="#02002b" d="M 115.113281 103.363281 C 133.570312 103.363281 150.292969 105.378906 162.40625 108.636719 C 174.804688 111.972656 182.472656 116.703125 182.472656 122.035156 C 182.472656 127.371094 174.804688 132.101562 162.40625 135.4375 C 150.292969 138.695312 133.570312 140.710938 115.113281 140.710938 C 96.65625 140.710938 79.933594 138.695312 67.820312 135.4375 C 55.421875 132.101562 47.75 127.371094 47.75 122.035156 C 47.75 116.703125 55.421875 111.972656 67.820312 108.636719 C 79.933594 105.378906 96.65625 103.363281 115.113281 103.363281 Z M 162.015625 110.09375 C 150.023438 106.867188 133.441406 104.871094 115.113281 104.871094 C 96.785156 104.871094 80.199219 106.867188 68.210938 110.09375 C 56.5 113.242188 49.261719 117.472656 49.261719 122.035156 C 49.261719 126.601562 56.5 130.832031 68.210938 133.980469 C 80.199219 137.207031 96.785156 139.203125 115.113281 139.203125 C 133.441406 139.203125 150.023438 137.207031 162.015625 133.980469 C 173.722656 130.832031 180.964844 126.601562 180.964844 122.035156 C 180.964844 117.472656 173.722656 113.242188 162.015625 110.09375 " fill-opacity="1" fill-rule="nonzero"/><path fill="#dd4400" d="M 114.890625 131.992188 C 136.605469 131.992188 154.316406 127.519531 154.316406 122.035156 C 154.316406 116.554688 136.605469 112.082031 114.890625 112.082031 C 93.175781 112.082031 75.464844 116.554688 75.464844 122.035156 C 75.464844 127.519531 93.175781 131.992188 114.890625 131.992188 " fill-opacity="1" fill-rule="evenodd"/><path fill="#02002b" d="M 114.890625 111.328125 C 125.839844 111.328125 135.777344 112.453125 142.984375 114.273438 C 150.492188 116.167969 155.136719 118.90625 155.136719 122.035156 C 155.136719 125.167969 150.492188 127.90625 142.984375 129.800781 C 135.777344 131.621094 125.839844 132.75 114.890625 132.75 C 103.9375 132.75 94.003906 131.621094 86.796875 129.800781 C 79.289062 127.90625 74.640625 125.167969 74.640625 122.035156 C 74.640625 118.90625 79.289062 116.167969 86.796875 114.273438 C 94.003906 112.453125 103.9375 111.328125 114.890625 111.328125 Z M 142.550781 115.722656 C 135.492188 113.9375 125.710938 112.835938 114.890625 112.835938 C 104.070312 112.835938 94.289062 113.9375 87.226562 115.722656 C 80.46875 117.429688 76.285156 119.671875 76.285156 122.035156 C 76.285156 124.40625 80.46875 126.644531 87.226562 128.351562 C 94.289062 130.132812 104.070312 131.238281 114.890625 131.238281 C 125.710938 131.238281 135.492188 130.132812 142.550781 128.351562 C 149.3125 126.644531 153.492188 124.40625 153.492188 122.035156 C 153.492188 119.671875 149.3125 117.429688 142.550781 115.722656 " fill-opacity="1" fill-rule="nonzero"/><path fill="#01f7a6" d="M 115.703125 104.613281 L 124.710938 107.972656 L 115.703125 111.328125 L 106.699219 107.972656 L 115.703125 104.613281 " fill-opacity="1" fill-rule="evenodd"/><path fill="#01f7a6" d="M 115.703125 132.308594 L 124.710938 135.664062 L 115.703125 139.023438 L 106.699219 135.664062 L 115.703125 132.308594 " fill-opacity="1" fill-rule="evenodd"/><path fill="#01f7a6" d="M 63.511719 117.984375 L 72.519531 121.726562 L 63.511719 125.464844 L 54.507812 121.726562 L 63.511719 117.984375 " fill-opacity="1" fill-rule="evenodd"/><path fill="#01f7a6" d="M 167.757812 117.984375 L 176.765625 121.726562 L 167.757812 125.464844 L 158.75 121.726562 L 167.757812 117.984375 " fill-opacity="1" fill-rule="evenodd"/><path fill="#dd4400" d="M 108.339844 102.882812 C 135.128906 102.882812 158.207031 107.167969 168.6875 113.339844 L 170.285156 108.398438 L 174.949219 107.710938 L 174.949219 120.894531 L 174.691406 120.90625 C 174.480469 130.753906 144.859375 138.71875 108.339844 138.71875 C 72.605469 138.71875 43.46875 131.089844 42.046875 121.53125 L 41.734375 121.578125 L 41.734375 107.710938 L 49.328125 112.601562 C 60.347656 106.828125 82.636719 102.882812 108.339844 102.882812 " fill-opacity="1" fill-rule="evenodd"/><g clip-path="url(#8f34e0643c)"><path fill="#02002b" d="M 108.339844 102.125 C 121.5625 102.125 133.886719 103.167969 144.253906 104.964844 C 154.480469 106.738281 162.816406 109.25 168.253906 112.230469 L 169.566406 108.167969 L 170.285156 108.398438 L 169.566406 108.167969 C 169.660156 107.871094 169.921875 107.675781 170.210938 107.648438 L 174.835938 106.964844 C 175.25 106.902344 175.632812 107.1875 175.695312 107.601562 C 175.699219 107.636719 175.703125 107.675781 175.703125 107.710938 L 175.703125 120.894531 C 175.703125 121.144531 175.582031 121.363281 175.398438 121.5 C 174.757812 126.566406 167.203125 131.046875 155.3125 134.238281 C 143.257812 137.476562 126.65625 139.476562 108.339844 139.476562 C 90.453125 139.476562 74.199219 137.566406 62.210938 134.457031 C 50.445312 131.410156 42.722656 127.128906 41.433594 122.269531 C 41.199219 122.167969 41.027344 121.953125 40.984375 121.6875 C 40.980469 121.648438 40.976562 121.613281 40.976562 121.578125 L 40.976562 107.710938 C 40.976562 107.292969 41.316406 106.957031 41.734375 106.957031 C 41.902344 106.957031 42.058594 107.011719 42.183594 107.105469 L 49.371094 111.734375 C 55.046875 108.851562 63.488281 106.433594 73.722656 104.746094 C 83.820312 103.082031 95.671875 102.125 108.339844 102.125 Z M 144.003906 106.449219 C 133.722656 104.667969 121.484375 103.632812 108.339844 103.632812 C 95.738281 103.632812 83.96875 104.585938 73.964844 106.234375 C 63.683594 107.925781 55.269531 110.351562 49.738281 113.234375 C 49.496094 113.390625 49.175781 113.398438 48.921875 113.234375 L 42.488281 109.09375 L 42.488281 120.917969 C 42.648438 121.035156 42.761719 121.210938 42.792969 121.421875 L 42.488281 121.46875 L 42.792969 121.421875 C 43.457031 125.882812 50.917969 129.976562 62.589844 133 C 74.449219 136.078125 90.566406 137.96875 108.339844 137.96875 C 126.53125 137.96875 142.992188 135.984375 154.925781 132.78125 C 166.550781 129.660156 173.789062 125.46875 173.9375 120.9375 C 173.925781 120.699219 174.027344 120.484375 174.191406 120.339844 L 174.191406 108.585938 L 170.855469 109.078125 L 169.421875 113.511719 C 169.40625 113.585938 169.375 113.65625 169.335938 113.722656 C 169.125 114.082031 168.660156 114.203125 168.304688 113.992188 L 168.304688 113.988281 C 163.058594 110.902344 154.574219 108.285156 144.003906 106.449219 Z M 42.183594 107.105469 L 42.488281 107.710938 C 42.488281 107.464844 42.367188 107.242188 42.183594 107.105469 " fill-opacity="1" fill-rule="nonzero"/></g><path fill="#01f7a6" d="M 96.546875 125.351562 L 108.339844 125.351562 L 108.339844 137.96875 L 96.546875 137.683594 L 96.546875 125.351562 " fill-opacity="1" fill-rule="evenodd"/><path fill="#01f7a6" d="M 52.996094 117.683594 L 64.332031 120.773438 L 63.765625 133.308594 L 52.648438 129.757812 L 52.996094 117.683594 " fill-opacity="1" fill-rule="evenodd"/><path fill="#01f7a6" d="M 154.007812 120.800781 L 141.996094 123.214844 L 142.5625 135.398438 L 153.683594 133.105469 L 154.007812 120.800781 " fill-opacity="1" fill-rule="evenodd"/><path fill="#ff4e00" d="M 108.339844 125.632812 C 145.027344 125.632812 174.949219 117.582031 174.949219 107.710938 C 174.949219 97.839844 145.027344 89.789062 108.339844 89.789062 C 71.65625 89.789062 41.734375 97.839844 41.734375 107.710938 C 41.734375 117.582031 71.65625 125.632812 108.339844 125.632812 " fill-opacity="1" fill-rule="evenodd"/><g clip-path="url(#c33b7e86bf)"><path fill="#02002b" d="M 108.339844 89.035156 C 126.796875 89.035156 143.519531 91.050781 155.632812 94.3125 C 168.03125 97.648438 175.703125 102.378906 175.703125 107.710938 C 175.703125 113.042969 168.03125 117.773438 155.632812 121.109375 C 143.519531 124.371094 126.796875 126.386719 108.339844 126.386719 C 89.882812 126.386719 73.160156 124.371094 61.046875 121.109375 C 48.648438 117.773438 40.976562 113.042969 40.976562 107.710938 C 40.976562 102.378906 48.648438 97.648438 61.046875 94.3125 C 73.160156 91.050781 89.882812 89.035156 108.339844 89.035156 Z M 155.242188 95.765625 C 143.25 92.542969 126.667969 90.546875 108.339844 90.546875 C 90.011719 90.546875 73.429688 92.542969 61.4375 95.765625 C 49.730469 98.917969 42.488281 103.148438 42.488281 107.710938 C 42.488281 112.273438 49.730469 116.503906 61.4375 119.65625 C 73.429688 122.878906 90.011719 124.875 108.339844 124.875 C 126.667969 124.875 143.25 122.878906 155.246094 119.65625 C 166.953125 116.503906 174.191406 112.273438 174.191406 107.710938 C 174.191406 103.148438 166.953125 98.917969 155.242188 95.765625 " fill-opacity="1" fill-rule="nonzero"/></g><path fill="#dd4400" d="M 108.117188 117.667969 C 129.832031 117.667969 147.542969 113.195312 147.542969 107.710938 C 147.542969 102.226562 129.832031 97.753906 108.117188 97.753906 C 86.402344 97.753906 68.691406 102.226562 68.691406 107.710938 C 68.691406 113.195312 86.402344 117.667969 108.117188 117.667969 " fill-opacity="1" fill-rule="evenodd"/><path fill="#02002b" d="M 108.117188 97 C 119.070312 97 129.003906 98.125 136.210938 99.945312 C 143.71875 101.84375 148.363281 104.582031 148.363281 107.710938 C 148.363281 110.839844 143.71875 113.578125 136.210938 115.476562 C 129.003906 117.296875 119.070312 118.421875 108.117188 118.421875 C 97.164062 118.421875 87.230469 117.296875 80.023438 115.476562 C 72.515625 113.578125 67.871094 110.839844 67.871094 107.710938 C 67.871094 104.582031 72.515625 101.84375 80.023438 99.945312 C 87.230469 98.125 97.164062 97 108.117188 97 Z M 135.78125 101.394531 C 128.71875 99.613281 118.941406 98.511719 108.117188 98.511719 C 97.296875 98.511719 87.515625 99.613281 80.453125 101.394531 C 73.695312 103.105469 69.515625 105.34375 69.515625 107.710938 C 69.515625 110.078125 73.695312 112.320312 80.453125 114.027344 C 87.515625 115.808594 97.296875 116.910156 108.117188 116.910156 C 118.941406 116.910156 128.71875 115.808594 135.78125 114.027344 C 142.539062 112.320312 146.722656 110.078125 146.722656 107.710938 C 146.722656 105.34375 142.539062 103.105469 135.78125 101.394531 " fill-opacity="1" fill-rule="nonzero"/><path fill="#01f7a6" d="M 108.933594 90.289062 L 117.941406 93.644531 L 108.933594 97.003906 L 99.925781 93.644531 L 108.933594 90.289062 " fill-opacity="1" fill-rule="evenodd"/><path fill="#01f7a6" d="M 108.933594 117.980469 L 117.941406 121.339844 L 108.933594 124.695312 L 99.925781 121.339844 L 108.933594 117.980469 " fill-opacity="1" fill-rule="evenodd"/><path fill="#01f7a6" d="M 56.742188 103.660156 L 65.746094 107.398438 L 56.742188 111.140625 L 47.734375 107.398438 L 56.742188 103.660156 " fill-opacity="1" fill-rule="evenodd"/><path fill="#01f7a6" d="M 160.988281 103.660156 L 169.992188 107.398438 L 160.988281 111.140625 L 151.980469 107.398438 L 160.988281 103.660156 " fill-opacity="1" fill-rule="evenodd"/><path fill="#dd4400" d="M 117.082031 81.8125 C 143.871094 81.8125 166.945312 86.097656 177.425781 92.273438 L 179.027344 87.332031 L 183.6875 86.640625 L 183.6875 99.824219 L 183.429688 99.835938 C 183.21875 109.683594 153.597656 117.652344 117.082031 117.652344 C 81.34375 117.652344 52.210938 110.019531 50.789062 100.464844 L 50.472656 100.507812 L 50.472656 86.640625 L 58.066406 91.53125 C 69.089844 85.757812 91.378906 81.8125 117.082031 81.8125 " fill-opacity="1" fill-rule="evenodd"/><g clip-path="url(#6e0b0cfd4e)"><path fill="#02002b" d="M 117.082031 81.054688 C 130.300781 81.054688 142.628906 82.097656 152.996094 83.894531 C 163.21875 85.667969 171.554688 88.183594 176.996094 91.164062 L 178.308594 87.101562 L 179.027344 87.332031 L 178.308594 87.097656 C 178.402344 86.804688 178.664062 86.609375 178.953125 86.578125 L 183.578125 85.894531 C 183.988281 85.832031 184.375 86.121094 184.433594 86.53125 C 184.4375 86.570312 184.441406 86.605469 184.441406 86.640625 L 184.441406 99.824219 C 184.441406 100.074219 184.324219 100.292969 184.140625 100.433594 C 183.5 105.496094 175.941406 109.976562 164.054688 113.167969 C 151.996094 116.40625 135.398438 118.40625 117.082031 118.40625 C 99.195312 118.40625 82.9375 116.496094 70.953125 113.390625 C 59.1875 110.339844 51.460938 106.058594 50.171875 101.199219 C 49.941406 101.101562 49.765625 100.886719 49.726562 100.617188 C 49.722656 100.578125 49.71875 100.542969 49.71875 100.507812 L 49.71875 86.640625 C 49.71875 86.222656 50.058594 85.886719 50.472656 85.886719 C 50.640625 85.886719 50.800781 85.941406 50.925781 86.035156 L 58.113281 90.664062 C 63.785156 87.78125 72.226562 85.363281 82.460938 83.679688 C 92.558594 82.015625 104.414062 81.054688 117.082031 81.054688 Z M 152.742188 85.382812 C 142.460938 83.601562 130.222656 82.566406 117.082031 82.566406 C 104.480469 82.566406 92.710938 83.515625 82.703125 85.164062 C 72.421875 86.859375 64.011719 89.28125 58.480469 92.167969 C 58.238281 92.320312 57.917969 92.332031 57.660156 92.167969 L 57.660156 92.164062 L 51.226562 88.023438 L 51.226562 99.851562 C 51.386719 99.964844 51.503906 100.140625 51.535156 100.351562 L 51.226562 100.398438 L 51.535156 100.355469 C 52.199219 104.8125 59.660156 108.90625 71.332031 111.933594 C 83.1875 115.007812 99.308594 116.894531 117.082031 116.894531 C 135.269531 116.894531 151.730469 114.917969 163.664062 111.710938 C 175.289062 108.589844 182.53125 104.398438 182.675781 99.867188 C 182.667969 99.628906 182.765625 99.414062 182.933594 99.269531 L 182.933594 87.515625 L 179.597656 88.007812 L 178.160156 92.445312 C 178.144531 92.515625 178.117188 92.585938 178.078125 92.65625 C 177.867188 93.011719 177.402344 93.132812 177.042969 92.921875 L 177.046875 92.921875 C 171.800781 89.832031 163.316406 87.214844 152.742188 85.382812 Z M 50.925781 86.035156 L 51.226562 86.640625 C 51.226562 86.394531 51.109375 86.175781 50.925781 86.035156 " fill-opacity="1" fill-rule="nonzero"/></g><path fill="#01f7a6" d="M 105.289062 104.28125 L 117.082031 104.28125 L 117.082031 116.894531 L 105.289062 116.613281 L 105.289062 104.28125 " fill-opacity="1" fill-rule="evenodd"/><path fill="#01f7a6" d="M 61.738281 96.617188 L 73.070312 99.703125 L 72.507812 112.238281 L 61.390625 108.6875 L 61.738281 96.617188 " fill-opacity="1" fill-rule="evenodd"/><path fill="#01f7a6" d="M 162.75 99.730469 L 150.738281 102.148438 L 151.300781 114.332031 L 162.425781 112.035156 L 162.75 99.730469 " fill-opacity="1" fill-rule="evenodd"/><path fill="#ff4e00" d="M 117.078125 104.5625 C 153.765625 104.5625 183.6875 96.511719 183.6875 86.640625 C 183.6875 76.773438 153.765625 68.722656 117.078125 68.722656 C 80.394531 68.722656 50.472656 76.773438 50.472656 86.640625 C 50.472656 96.511719 80.394531 104.5625 117.078125 104.5625 " fill-opacity="1" fill-rule="evenodd"/><g clip-path="url(#951103ff45)"><path fill="#02002b" d="M 117.078125 67.964844 C 135.535156 67.964844 152.257812 69.984375 164.371094 73.242188 C 176.773438 76.578125 184.441406 81.308594 184.441406 86.640625 C 184.441406 91.976562 176.773438 96.707031 164.371094 100.042969 C 152.257812 103.300781 135.535156 105.316406 117.078125 105.316406 C 98.621094 105.316406 81.902344 103.300781 69.789062 100.042969 C 57.386719 96.707031 49.71875 91.976562 49.71875 86.640625 C 49.71875 81.308594 57.386719 76.578125 69.789062 73.242188 C 81.902344 69.984375 98.621094 67.964844 117.078125 67.964844 Z M 163.984375 74.699219 C 151.992188 71.472656 135.410156 69.476562 117.078125 69.476562 C 98.75 69.476562 82.167969 71.472656 70.175781 74.699219 C 58.46875 77.847656 51.226562 82.078125 51.226562 86.640625 C 51.226562 91.203125 58.46875 95.4375 70.175781 98.585938 C 82.167969 101.8125 98.75 103.808594 117.078125 103.808594 C 135.410156 103.808594 151.992188 101.8125 163.984375 98.585938 C 175.691406 95.4375 182.933594 91.203125 182.933594 86.640625 C 182.933594 82.078125 175.691406 77.847656 163.984375 74.699219 " fill-opacity="1" fill-rule="nonzero"/></g><path fill="#dd4400" d="M 116.855469 96.597656 C 138.574219 96.597656 156.28125 92.125 156.28125 86.640625 C 156.28125 81.160156 138.574219 76.6875 116.855469 76.6875 C 95.140625 76.6875 77.433594 81.160156 77.433594 86.640625 C 77.433594 92.125 95.140625 96.597656 116.855469 96.597656 " fill-opacity="1" fill-rule="evenodd"/><path fill="#02002b" d="M 116.855469 75.929688 C 127.808594 75.929688 137.742188 77.058594 144.949219 78.875 C 152.460938 80.773438 157.105469 83.511719 157.105469 86.640625 C 157.105469 89.773438 152.460938 92.511719 144.949219 94.40625 C 137.742188 96.226562 127.808594 97.351562 116.855469 97.351562 C 105.90625 97.351562 95.972656 96.226562 88.765625 94.40625 C 81.253906 92.511719 76.609375 89.773438 76.609375 86.640625 C 76.609375 83.511719 81.253906 80.773438 88.765625 78.875 C 95.972656 77.058594 105.90625 75.929688 116.855469 75.929688 Z M 144.519531 80.328125 C 137.460938 78.542969 127.679688 77.441406 116.855469 77.441406 C 106.035156 77.441406 96.257812 78.542969 89.195312 80.328125 C 82.433594 82.035156 78.253906 84.273438 78.253906 86.640625 C 78.253906 89.007812 82.433594 91.25 89.195312 92.957031 C 96.257812 94.738281 106.035156 95.84375 116.855469 95.84375 C 127.679688 95.84375 137.460938 94.738281 144.519531 92.957031 C 151.28125 91.25 155.460938 89.007812 155.460938 86.640625 C 155.460938 84.273438 151.28125 82.035156 144.519531 80.328125 " fill-opacity="1" fill-rule="nonzero"/><path fill="#01f7a6" d="M 117.671875 69.21875 L 126.679688 72.578125 L 117.671875 75.9375 L 108.667969 72.578125 L 117.671875 69.21875 " fill-opacity="1" fill-rule="evenodd"/><path fill="#01f7a6" d="M 117.671875 96.910156 L 126.679688 100.269531 L 117.671875 103.628906 L 108.667969 100.269531 L 117.671875 96.910156 " fill-opacity="1" fill-rule="evenodd"/><path fill="#01f7a6" d="M 65.480469 82.589844 L 74.488281 86.328125 L 65.480469 90.070312 L 56.472656 86.328125 L 65.480469 82.589844 " fill-opacity="1" fill-rule="evenodd"/><path fill="#01f7a6" d="M 169.726562 82.589844 L 178.734375 86.328125 L 169.726562 90.070312 L 160.71875 86.328125 L 169.726562 82.589844 " fill-opacity="1" fill-rule="evenodd"/><path fill="#dd4400" d="M 108.339844 67.300781 C 135.128906 67.300781 158.207031 71.589844 168.6875 77.761719 L 170.285156 72.820312 L 174.949219 72.132812 L 174.949219 85.316406 L 174.691406 85.324219 C 174.480469 95.175781 144.859375 103.140625 108.339844 103.140625 C 72.605469 103.140625 43.46875 95.511719 42.046875 85.953125 L 41.734375 86 L 41.734375 72.132812 L 49.328125 77.019531 C 60.347656 71.25 82.636719 67.300781 108.339844 67.300781 " fill-opacity="1" fill-rule="evenodd"/><g clip-path="url(#0ac633d680)"><path fill="#02002b" d="M 108.339844 66.546875 C 121.5625 66.546875 133.886719 67.589844 144.253906 69.386719 C 154.480469 71.15625 162.816406 73.671875 168.253906 76.652344 L 169.566406 72.589844 L 170.285156 72.820312 L 169.566406 72.585938 C 169.660156 72.292969 169.921875 72.097656 170.210938 72.070312 L 174.835938 71.386719 L 174.835938 71.382812 C 175.25 71.324219 175.632812 71.609375 175.695312 72.023438 C 175.699219 72.058594 175.703125 72.09375 175.703125 72.132812 L 175.703125 85.316406 C 175.703125 85.5625 175.582031 85.785156 175.398438 85.921875 C 174.757812 90.988281 167.203125 95.464844 155.3125 98.660156 C 143.257812 101.898438 126.65625 103.898438 108.339844 103.898438 C 90.453125 103.898438 74.199219 101.988281 62.210938 98.878906 C 50.445312 95.828125 42.722656 91.546875 41.433594 86.691406 C 41.199219 86.589844 41.027344 86.375 40.984375 86.105469 C 40.980469 86.070312 40.976562 86.035156 40.976562 86 L 40.976562 72.132812 C 40.976562 71.714844 41.316406 71.375 41.734375 71.375 C 41.902344 71.375 42.058594 71.433594 42.183594 71.527344 L 49.371094 76.152344 C 55.046875 73.269531 63.488281 70.851562 73.722656 69.167969 C 83.820312 67.503906 95.671875 66.546875 108.339844 66.546875 Z M 144.003906 70.871094 C 133.722656 69.089844 121.484375 68.054688 108.339844 68.054688 C 95.738281 68.054688 83.96875 69.003906 73.964844 70.652344 C 63.683594 72.347656 55.269531 74.773438 49.738281 77.65625 C 49.496094 77.8125 49.175781 77.820312 48.921875 77.65625 L 48.921875 77.652344 L 42.488281 73.515625 L 42.488281 85.339844 C 42.648438 85.457031 42.761719 85.632812 42.792969 85.839844 L 42.488281 85.886719 L 42.488281 85.890625 L 42.792969 85.84375 C 43.457031 90.304688 50.917969 94.398438 62.589844 97.421875 C 74.449219 100.496094 90.566406 102.386719 108.339844 102.386719 C 126.53125 102.386719 142.992188 100.40625 154.925781 97.203125 C 166.550781 94.078125 173.789062 89.886719 173.9375 85.359375 L 173.9375 85.355469 C 173.925781 85.121094 174.027344 84.90625 174.191406 84.757812 L 174.191406 73.007812 L 170.855469 73.496094 L 169.421875 77.933594 C 169.40625 78.007812 169.375 78.078125 169.335938 78.144531 C 169.125 78.503906 168.660156 78.621094 168.304688 78.410156 C 163.058594 75.320312 154.574219 72.703125 144.003906 70.871094 Z M 42.183594 71.527344 L 42.488281 72.132812 C 42.488281 71.882812 42.367188 71.664062 42.183594 71.527344 " fill-opacity="1" fill-rule="nonzero"/></g><path fill="#01f7a6" d="M 96.546875 89.773438 L 108.339844 89.773438 L 108.339844 102.386719 L 96.546875 102.105469 L 96.546875 89.773438 " fill-opacity="1" fill-rule="evenodd"/><path fill="#01f7a6" d="M 52.996094 82.105469 L 64.332031 85.191406 L 63.765625 97.726562 L 52.648438 94.175781 L 52.996094 82.105469 " fill-opacity="1" fill-rule="evenodd"/><path fill="#01f7a6" d="M 154.007812 85.222656 L 141.996094 87.636719 L 142.5625 99.820312 L 153.683594 97.523438 L 154.007812 85.222656 " fill-opacity="1" fill-rule="evenodd"/><path fill="#ff4e00" d="M 108.339844 90.050781 C 145.027344 90.050781 174.949219 82 174.949219 72.132812 C 174.949219 62.261719 145.027344 54.210938 108.339844 54.210938 C 71.65625 54.210938 41.734375 62.261719 41.734375 72.132812 C 41.734375 82 71.65625 90.050781 108.339844 90.050781 " fill-opacity="1" fill-rule="evenodd"/><g clip-path="url(#d8267c2bb9)"><path fill="#02002b" d="M 108.339844 53.457031 C 126.796875 53.457031 143.519531 55.472656 155.632812 58.730469 C 168.03125 62.070312 175.703125 66.796875 175.703125 72.132812 C 175.703125 77.464844 168.03125 82.195312 155.632812 85.53125 C 143.519531 88.792969 126.796875 90.808594 108.339844 90.808594 C 89.882812 90.808594 73.160156 88.792969 61.046875 85.53125 C 48.648438 82.195312 40.976562 77.464844 40.976562 72.132812 C 40.976562 66.796875 48.648438 62.070312 61.046875 58.730469 C 73.160156 55.472656 89.882812 53.457031 108.339844 53.457031 Z M 155.242188 60.1875 C 143.25 56.960938 126.667969 54.964844 108.339844 54.964844 C 90.011719 54.964844 73.429688 56.960938 61.4375 60.1875 C 49.730469 63.339844 42.488281 67.566406 42.488281 72.132812 C 42.488281 76.695312 49.730469 80.925781 61.4375 84.074219 C 73.429688 87.300781 90.011719 89.296875 108.339844 89.296875 C 126.667969 89.296875 143.25 87.300781 155.246094 84.074219 C 166.953125 80.925781 174.191406 76.695312 174.191406 72.132812 C 174.191406 67.566406 166.953125 63.339844 155.242188 60.1875 " fill-opacity="1" fill-rule="nonzero"/></g><path fill="#dd4400" d="M 108.117188 82.085938 C 129.832031 82.085938 147.542969 77.617188 147.542969 72.132812 C 147.542969 66.648438 129.832031 62.175781 108.117188 62.175781 C 86.402344 62.175781 68.691406 66.648438 68.691406 72.132812 C 68.691406 77.617188 86.402344 82.085938 108.117188 82.085938 " fill-opacity="1" fill-rule="evenodd"/><path fill="#02002b" d="M 108.117188 61.421875 C 119.070312 61.421875 129.003906 62.546875 136.210938 64.367188 C 143.71875 66.261719 148.363281 69 148.363281 72.132812 C 148.363281 75.261719 143.71875 78 136.210938 79.898438 C 129.003906 81.71875 119.070312 82.839844 108.117188 82.839844 C 97.164062 82.839844 87.230469 81.71875 80.023438 79.898438 C 72.515625 78 67.871094 75.261719 67.871094 72.132812 C 67.871094 69 72.515625 66.261719 80.023438 64.367188 C 87.230469 62.546875 97.164062 61.421875 108.117188 61.421875 Z M 135.78125 65.816406 C 128.71875 64.035156 118.941406 62.929688 108.117188 62.929688 C 97.296875 62.929688 87.515625 64.035156 80.453125 65.816406 C 73.695312 67.523438 69.515625 69.761719 69.515625 72.132812 C 69.515625 74.5 73.695312 76.738281 80.453125 78.445312 C 87.515625 80.230469 97.296875 81.332031 108.117188 81.332031 C 118.941406 81.332031 128.71875 80.230469 135.78125 78.445312 C 142.539062 76.738281 146.722656 74.5 146.722656 72.132812 C 146.722656 69.761719 142.539062 67.523438 135.78125 65.816406 " fill-opacity="1" fill-rule="nonzero"/><path fill="#01f7a6" d="M 108.933594 54.707031 L 117.941406 58.066406 L 108.933594 61.425781 L 99.925781 58.066406 L 108.933594 54.707031 " fill-opacity="1" fill-rule="evenodd"/><path fill="#01f7a6" d="M 108.933594 82.402344 L 117.941406 85.757812 L 108.933594 89.117188 L 99.925781 85.757812 L 108.933594 82.402344 " fill-opacity="1" fill-rule="evenodd"/><path fill="#01f7a6" d="M 56.742188 68.078125 L 65.746094 71.820312 L 56.742188 75.558594 L 47.734375 71.820312 L 56.742188 68.078125 " fill-opacity="1" fill-rule="evenodd"/><path fill="#01f7a6" d="M 160.988281 68.078125 L 169.992188 71.820312 L 160.988281 75.558594 L 151.980469 71.820312 L 160.988281 68.078125 " fill-opacity="1" fill-rule="evenodd"/></svg>