<svg xmlns="http://www.w3.org/2000/svg" xmlns:xlink="http://www.w3.org/1999/xlink" width="300" zoomAndPan="magnify" viewBox="0 0 224.87999 225" height="300" preserveAspectRatio="xMidYMid meet" version="1.0"><defs><clipPath id="0e80b860f3"><path d="M 40.441406 138.230469 L 175.207031 138.230469 L 175.207031 175.835938 L 40.441406 175.835938 Z M 40.441406 138.230469 " clip-rule="nonzero"/></clipPath><clipPath id="528993c6d3"><path d="M 40.214844 125 L 176 125 L 176 163 L 40.214844 163 Z M 40.214844 125 " clip-rule="nonzero"/></clipPath><clipPath id="bf34a8ba07"><path d="M 40.214844 106 L 176 106 L 176 144 L 40.214844 144 Z M 40.214844 106 " clip-rule="nonzero"/></clipPath><clipPath id="1d4165288e"><path d="M 40.214844 93 L 176 93 L 176 131 L 40.214844 131 Z M 40.214844 93 " clip-rule="nonzero"/></clipPath><clipPath id="25876c8e26"><path d="M 49.425781 85.109375 L 184.441406 85.109375 L 184.441406 123 L 49.425781 123 Z M 49.425781 85.109375 " clip-rule="nonzero"/></clipPath><clipPath id="f6daaaf737"><path d="M 49.425781 72.21875 L 184.441406 72.21875 L 184.441406 109.71875 L 49.425781 109.71875 Z M 49.425781 72.21875 " clip-rule="nonzero"/></clipPath><clipPath id="6070782120"><path d="M 40.214844 70 L 176 70 L 176 109 L 40.214844 109 Z M 40.214844 70 " clip-rule="nonzero"/></clipPath><clipPath id="11a59722bd"><path d="M 40.214844 57.765625 L 176 57.765625 L 176 96 L 40.214844 96 Z M 40.214844 57.765625 " clip-rule="nonzero"/></clipPath></defs><path fill="#10b981" d="M 107.804688 139.238281 C 134.59375 139.238281 157.671875 143.527344 168.152344 149.699219 L 169.75 144.757812 L 174.410156 144.070312 L 174.410156 157.253906 L 174.15625 157.261719 C 173.945312 167.113281 144.320312 175.078125 107.804688 175.078125 C 72.066406 175.078125 42.933594 167.449219 41.511719 157.890625 L 41.199219 157.9375 L 41.199219 144.070312 L 48.792969 148.960938 C 59.8125 143.183594 82.101562 139.238281 107.804688 139.238281 " fill-opacity="1" fill-rule="evenodd"/><g clip-path="url(#0e80b860f3)"><path fill="#02002b" d="M 107.804688 138.484375 C 121.027344 138.484375 133.351562 139.527344 143.71875 141.324219 C 153.941406 143.09375 162.277344 145.609375 167.71875 148.589844 L 169.03125 144.527344 L 169.75 144.757812 L 169.03125 144.523438 C 169.125 144.230469 169.386719 144.035156 169.675781 144.007812 L 174.300781 143.324219 C 174.714844 143.261719 175.097656 143.546875 175.15625 143.960938 C 175.164062 143.996094 175.167969 144.03125 175.167969 144.070312 L 175.167969 157.253906 C 175.167969 157.5 175.046875 157.722656 174.863281 157.859375 C 174.222656 162.925781 166.664062 167.402344 154.777344 170.597656 C 142.722656 173.835938 126.121094 175.835938 107.804688 175.835938 C 89.917969 175.835938 73.664062 173.925781 61.675781 170.816406 C 49.910156 167.765625 42.183594 163.484375 40.898438 158.628906 C 40.664062 158.527344 40.488281 158.3125 40.449219 158.042969 C 40.445312 158.007812 40.441406 157.972656 40.441406 157.9375 L 40.441406 144.070312 C 40.441406 143.652344 40.78125 143.3125 41.199219 143.3125 C 41.367188 143.3125 41.523438 143.371094 41.648438 143.464844 L 48.835938 148.089844 C 54.511719 145.207031 62.949219 142.789062 73.1875 141.105469 C 83.285156 139.441406 95.136719 138.484375 107.804688 138.484375 Z M 143.464844 142.808594 C 133.183594 141.027344 120.945312 139.992188 107.804688 139.992188 C 95.203125 139.992188 83.433594 140.941406 73.429688 142.589844 C 63.144531 144.285156 54.734375 146.710938 49.203125 149.59375 C 48.960938 149.75 48.640625 149.757812 48.386719 149.59375 L 41.953125 145.453125 L 41.953125 157.277344 C 42.113281 157.394531 42.226562 157.570312 42.257812 157.78125 L 41.953125 157.824219 L 42.257812 157.78125 C 42.921875 162.242188 50.382812 166.335938 62.054688 169.359375 C 73.914062 172.433594 90.03125 174.324219 107.804688 174.324219 C 125.992188 174.324219 142.453125 172.34375 154.390625 169.140625 C 166.015625 166.019531 173.253906 161.824219 173.398438 157.296875 L 173.398438 157.292969 C 173.390625 157.058594 173.492188 156.84375 173.65625 156.695312 L 173.65625 144.941406 L 170.320312 145.433594 L 168.886719 149.871094 C 168.867188 149.945312 168.839844 150.011719 168.800781 150.082031 C 168.589844 150.441406 168.125 150.558594 167.769531 150.347656 C 162.523438 147.257812 154.039062 144.640625 143.464844 142.808594 Z M 41.648438 143.464844 L 41.953125 144.070312 C 41.953125 143.820312 41.832031 143.601562 41.648438 143.464844 " fill-opacity="1" fill-rule="nonzero"/></g><path fill="#ffffff" d="M 96.011719 161.710938 L 107.804688 161.710938 L 107.804688 174.324219 L 96.011719 174.042969 L 96.011719 161.710938 " fill-opacity="1" fill-rule="evenodd"/><path fill="#ffffff" d="M 52.460938 154.042969 L 63.796875 157.128906 L 63.230469 169.664062 L 52.113281 166.113281 L 52.460938 154.042969 " fill-opacity="1" fill-rule="evenodd"/><path fill="#ffffff" d="M 153.472656 157.160156 L 141.460938 159.574219 L 142.027344 171.757812 L 153.148438 169.464844 L 153.472656 157.160156 " fill-opacity="1" fill-rule="evenodd"/><path fill="#01f7a6" d="M 107.804688 161.988281 C 144.492188 161.988281 174.410156 153.941406 174.410156 144.070312 C 174.410156 134.199219 144.492188 126.148438 107.804688 126.148438 C 71.117188 126.148438 41.199219 134.199219 41.199219 144.070312 C 41.199219 153.941406 71.117188 161.988281 107.804688 161.988281 " fill-opacity="1" fill-rule="evenodd"/><g clip-path="url(#528993c6d3)"><path fill="#02002b" d="M 107.804688 125.394531 C 126.261719 125.394531 142.984375 127.410156 155.097656 130.667969 C 167.496094 134.003906 175.167969 138.734375 175.167969 144.070312 C 175.167969 149.402344 167.496094 154.132812 155.097656 157.46875 C 142.984375 160.726562 126.261719 162.742188 107.804688 162.742188 C 89.347656 162.742188 72.625 160.726562 60.511719 157.46875 C 48.113281 154.132812 40.441406 149.402344 40.441406 144.070312 C 40.441406 138.734375 48.113281 134.003906 60.511719 130.667969 C 72.625 127.410156 89.347656 125.394531 107.804688 125.394531 Z M 154.707031 132.125 C 142.714844 128.898438 126.132812 126.902344 107.804688 126.902344 C 89.476562 126.902344 72.894531 128.898438 60.898438 132.125 C 49.195312 135.273438 41.953125 139.503906 41.953125 144.070312 C 41.953125 148.632812 49.195312 152.863281 60.898438 156.011719 C 72.894531 159.238281 89.476562 161.234375 107.804688 161.234375 C 126.132812 161.234375 142.714844 159.238281 154.707031 156.011719 C 166.414062 152.863281 173.65625 148.632812 173.65625 144.070312 C 173.65625 139.503906 166.414062 135.273438 154.707031 132.125 " fill-opacity="1" fill-rule="nonzero"/></g><path fill="#10b981" d="M 107.582031 154.023438 C 129.296875 154.023438 147.007812 149.554688 147.007812 144.070312 C 147.007812 138.585938 129.296875 134.113281 107.582031 134.113281 C 85.867188 134.113281 68.15625 138.585938 68.15625 144.070312 C 68.15625 149.554688 85.867188 154.023438 107.582031 154.023438 " fill-opacity="1" fill-rule="evenodd"/><path fill="#02002b" d="M 107.582031 133.359375 C 118.535156 133.359375 128.46875 134.484375 135.675781 136.304688 C 143.183594 138.199219 147.828125 140.9375 147.828125 144.070312 C 147.828125 147.199219 143.183594 149.9375 135.675781 151.835938 C 128.46875 153.65625 118.535156 154.777344 107.582031 154.777344 C 96.628906 154.777344 86.695312 153.65625 79.488281 151.835938 C 71.980469 149.9375 67.335938 147.199219 67.335938 144.070312 C 67.335938 140.9375 71.980469 138.199219 79.488281 136.304688 C 86.695312 134.484375 96.628906 133.359375 107.582031 133.359375 Z M 135.246094 137.753906 C 128.183594 135.972656 118.402344 134.867188 107.582031 134.867188 C 96.757812 134.867188 86.980469 135.972656 79.917969 137.753906 C 73.160156 139.460938 68.976562 141.699219 68.976562 144.070312 C 68.976562 146.4375 73.160156 148.675781 79.917969 150.382812 C 86.980469 152.167969 96.757812 153.269531 107.582031 153.269531 C 118.402344 153.269531 128.183594 152.167969 135.246094 150.382812 C 142.003906 148.675781 146.1875 146.4375 146.1875 144.070312 C 146.1875 141.699219 142.003906 139.460938 135.246094 137.753906 " fill-opacity="1" fill-rule="nonzero"/><path fill="#ffffff" d="M 108.398438 126.644531 L 117.40625 130.003906 L 108.398438 133.363281 L 99.390625 130.003906 L 108.398438 126.644531 " fill-opacity="1" fill-rule="evenodd"/><path fill="#ffffff" d="M 108.398438 154.339844 L 117.40625 157.695312 L 108.398438 161.054688 L 99.390625 157.695312 L 108.398438 154.339844 " fill-opacity="1" fill-rule="evenodd"/><path fill="#ffffff" d="M 56.203125 140.015625 L 65.210938 143.757812 L 56.203125 147.496094 L 47.199219 143.757812 L 56.203125 140.015625 " fill-opacity="1" fill-rule="evenodd"/><path fill="#ffffff" d="M 160.449219 140.015625 L 169.457031 143.757812 L 160.449219 147.496094 L 151.445312 143.757812 L 160.449219 140.015625 " fill-opacity="1" fill-rule="evenodd"/><path fill="#10b981" d="M 115.113281 121.511719 C 141.902344 121.511719 164.980469 125.800781 175.457031 131.976562 L 177.058594 127.03125 L 181.71875 126.34375 L 181.71875 139.53125 L 181.460938 139.539062 C 181.25 149.386719 151.628906 157.355469 115.113281 157.355469 C 79.378906 157.355469 50.242188 149.722656 48.820312 140.164062 L 48.503906 140.210938 L 48.503906 126.34375 L 56.101562 131.234375 C 67.121094 125.460938 89.410156 121.511719 115.113281 121.511719 " fill-opacity="1" fill-rule="evenodd"/><path fill="#02002b" d="M 115.113281 120.757812 C 128.332031 120.757812 140.660156 121.800781 151.027344 123.597656 C 161.25 125.371094 169.589844 127.882812 175.027344 130.863281 L 176.339844 126.800781 L 177.058594 127.03125 L 176.339844 126.800781 C 176.433594 126.507812 176.695312 126.3125 176.984375 126.28125 L 181.609375 125.597656 C 182.023438 125.539062 182.40625 125.824219 182.464844 126.234375 C 182.472656 126.269531 182.472656 126.308594 182.472656 126.34375 L 182.472656 139.53125 C 182.472656 139.777344 182.355469 139.996094 182.171875 140.136719 C 181.53125 145.199219 173.972656 149.679688 162.085938 152.871094 C 150.03125 156.109375 133.429688 158.109375 115.113281 158.109375 C 97.226562 158.109375 80.96875 156.199219 68.984375 153.09375 C 57.21875 150.042969 49.492188 145.761719 48.203125 140.902344 C 47.972656 140.804688 47.796875 140.589844 47.757812 140.320312 C 47.753906 140.28125 47.75 140.25 47.75 140.210938 L 47.75 126.34375 C 47.75 125.929688 48.089844 125.589844 48.503906 125.589844 C 48.675781 125.589844 48.832031 125.644531 48.957031 125.738281 L 56.144531 130.367188 C 61.820312 127.484375 70.261719 125.066406 80.496094 123.382812 C 90.59375 121.71875 102.445312 120.757812 115.113281 120.757812 Z M 150.773438 125.082031 C 140.492188 123.304688 128.253906 122.269531 115.113281 122.269531 C 102.511719 122.269531 90.742188 123.21875 80.738281 124.867188 C 70.457031 126.558594 62.042969 128.984375 56.511719 131.867188 C 56.269531 132.023438 55.949219 132.035156 55.691406 131.871094 L 55.691406 131.867188 L 49.261719 127.726562 L 49.261719 139.554688 C 49.421875 139.667969 49.535156 139.84375 49.566406 140.054688 L 49.261719 140.101562 L 49.566406 140.058594 C 50.230469 144.515625 57.691406 148.609375 69.363281 151.636719 C 81.21875 154.710938 97.339844 156.597656 115.113281 156.597656 C 133.304688 156.597656 149.761719 154.617188 161.695312 151.414062 C 173.320312 148.292969 180.5625 144.101562 180.707031 139.570312 C 180.699219 139.332031 180.800781 139.117188 180.964844 138.972656 L 180.964844 127.21875 L 177.628906 127.710938 L 176.195312 132.148438 C 176.175781 132.21875 176.148438 132.289062 176.109375 132.359375 C 175.898438 132.714844 175.433594 132.835938 175.074219 132.625 L 175.078125 132.621094 C 169.832031 129.535156 161.347656 126.917969 150.773438 125.082031 Z M 48.957031 125.738281 L 49.261719 126.34375 C 49.261719 126.097656 49.140625 125.875 48.957031 125.738281 " fill-opacity="1" fill-rule="nonzero"/><path fill="#ffffff" d="M 103.320312 143.984375 L 115.113281 143.984375 L 115.113281 156.597656 L 103.320312 156.316406 L 103.320312 143.984375 " fill-opacity="1" fill-rule="evenodd"/><path fill="#ffffff" d="M 59.769531 136.320312 L 71.105469 139.40625 L 70.539062 151.941406 L 59.421875 148.390625 L 59.769531 136.320312 " fill-opacity="1" fill-rule="evenodd"/><path fill="#ffffff" d="M 160.78125 139.433594 L 148.769531 141.847656 L 149.332031 154.035156 L 160.457031 151.738281 L 160.78125 139.433594 " fill-opacity="1" fill-rule="evenodd"/><path fill="#01f7a6" d="M 115.113281 144.265625 C 151.796875 144.265625 181.71875 136.214844 181.71875 126.34375 C 181.71875 116.476562 151.796875 108.425781 115.113281 108.425781 C 78.425781 108.425781 48.503906 116.476562 48.503906 126.34375 C 48.503906 136.214844 78.425781 144.265625 115.113281 144.265625 " fill-opacity="1" fill-rule="evenodd"/><path fill="#02002b" d="M 115.113281 107.667969 C 133.570312 107.667969 150.292969 109.6875 162.40625 112.945312 C 174.804688 116.28125 182.472656 121.011719 182.472656 126.34375 C 182.472656 131.679688 174.804688 136.40625 162.40625 139.746094 C 150.292969 143.003906 133.570312 145.019531 115.113281 145.019531 C 96.65625 145.019531 79.933594 143.003906 67.820312 139.746094 C 55.421875 136.40625 47.75 131.679688 47.75 126.34375 C 47.75 121.011719 55.421875 116.28125 67.820312 112.945312 C 79.933594 109.6875 96.65625 107.667969 115.113281 107.667969 Z M 162.015625 114.402344 C 150.023438 111.175781 133.441406 109.179688 115.113281 109.179688 C 96.785156 109.179688 80.199219 111.175781 68.210938 114.402344 C 56.5 117.550781 49.261719 121.78125 49.261719 126.34375 C 49.261719 130.90625 56.5 135.136719 68.210938 138.289062 C 80.199219 141.515625 96.785156 143.511719 115.113281 143.511719 C 133.441406 143.511719 150.023438 141.515625 162.015625 138.289062 C 173.722656 135.136719 180.964844 130.90625 180.964844 126.34375 C 180.964844 121.78125 173.722656 117.550781 162.015625 114.402344 " fill-opacity="1" fill-rule="nonzero"/><path fill="#10b981" d="M 114.890625 136.300781 C 136.605469 136.300781 154.316406 131.828125 154.316406 126.34375 C 154.316406 120.863281 136.605469 116.386719 114.890625 116.386719 C 93.175781 116.386719 75.464844 120.863281 75.464844 126.34375 C 75.464844 131.828125 93.175781 136.300781 114.890625 136.300781 " fill-opacity="1" fill-rule="evenodd"/><path fill="#02002b" d="M 114.890625 115.632812 C 125.839844 115.632812 135.777344 116.761719 142.984375 118.578125 C 150.492188 120.476562 155.136719 123.214844 155.136719 126.34375 C 155.136719 129.476562 150.492188 132.210938 142.984375 134.109375 C 135.777344 135.929688 125.839844 137.054688 114.890625 137.054688 C 103.9375 137.054688 94.003906 135.929688 86.796875 134.109375 C 79.289062 132.210938 74.640625 129.476562 74.640625 126.34375 C 74.640625 123.214844 79.289062 120.476562 86.796875 118.578125 C 94.003906 116.761719 103.9375 115.632812 114.890625 115.632812 Z M 142.550781 120.03125 C 135.492188 118.246094 125.710938 117.144531 114.890625 117.144531 C 104.070312 117.144531 94.289062 118.246094 87.226562 120.03125 C 80.46875 121.738281 76.285156 123.976562 76.285156 126.34375 C 76.285156 128.710938 80.46875 130.953125 87.226562 132.660156 C 94.289062 134.441406 104.070312 135.546875 114.890625 135.546875 C 125.710938 135.546875 135.492188 134.441406 142.550781 132.660156 C 149.3125 130.953125 153.492188 128.710938 153.492188 126.34375 C 153.492188 123.976562 149.3125 121.738281 142.550781 120.03125 " fill-opacity="1" fill-rule="nonzero"/><path fill="#ffffff" d="M 115.703125 108.921875 L 124.710938 112.277344 L 115.703125 115.636719 L 106.699219 112.277344 L 115.703125 108.921875 " fill-opacity="1" fill-rule="evenodd"/><path fill="#ffffff" d="M 115.703125 136.613281 L 124.710938 139.972656 L 115.703125 143.332031 L 106.699219 139.972656 L 115.703125 136.613281 " fill-opacity="1" fill-rule="evenodd"/><path fill="#ffffff" d="M 63.511719 122.292969 L 72.519531 126.03125 L 63.511719 129.773438 L 54.507812 126.03125 L 63.511719 122.292969 " fill-opacity="1" fill-rule="evenodd"/><path fill="#ffffff" d="M 167.757812 122.292969 L 176.765625 126.03125 L 167.757812 129.773438 L 158.75 126.03125 L 167.757812 122.292969 " fill-opacity="1" fill-rule="evenodd"/><path fill="#10b981" d="M 108.339844 107.1875 C 135.128906 107.1875 158.207031 111.476562 168.6875 117.648438 L 170.285156 112.707031 L 174.949219 112.019531 L 174.949219 125.203125 L 174.691406 125.214844 C 174.480469 135.0625 144.859375 143.027344 108.339844 143.027344 C 72.605469 143.027344 43.46875 135.398438 42.046875 125.839844 L 41.734375 125.886719 L 41.734375 112.019531 L 49.328125 116.910156 C 60.347656 111.136719 82.636719 107.1875 108.339844 107.1875 " fill-opacity="1" fill-rule="evenodd"/><g clip-path="url(#bf34a8ba07)"><path fill="#02002b" d="M 108.339844 106.433594 C 121.5625 106.433594 133.886719 107.476562 144.253906 109.273438 C 154.480469 111.042969 162.816406 113.558594 168.253906 116.539062 L 169.566406 112.476562 L 170.285156 112.707031 L 169.566406 112.472656 C 169.660156 112.179688 169.921875 111.984375 170.210938 111.957031 L 174.835938 111.273438 C 175.25 111.210938 175.632812 111.496094 175.695312 111.90625 C 175.699219 111.945312 175.703125 111.984375 175.703125 112.019531 L 175.703125 125.203125 C 175.703125 125.453125 175.582031 125.671875 175.398438 125.808594 C 174.757812 130.875 167.203125 135.351562 155.3125 138.546875 C 143.257812 141.78125 126.65625 143.785156 108.339844 143.785156 C 90.453125 143.785156 74.199219 141.875 62.210938 138.765625 C 50.445312 135.714844 42.722656 131.4375 41.433594 126.578125 C 41.199219 126.476562 41.027344 126.261719 40.984375 125.992188 C 40.980469 125.957031 40.976562 125.921875 40.976562 125.886719 L 40.976562 112.019531 C 40.976562 111.601562 41.316406 111.265625 41.734375 111.265625 C 41.902344 111.265625 42.058594 111.320312 42.183594 111.414062 L 49.371094 116.039062 C 55.046875 113.15625 63.488281 110.742188 73.722656 109.054688 C 83.820312 107.390625 95.671875 106.433594 108.339844 106.433594 Z M 144.003906 110.757812 C 133.722656 108.976562 121.484375 107.941406 108.339844 107.941406 C 95.738281 107.941406 83.96875 108.894531 73.964844 110.539062 C 63.683594 112.234375 55.269531 114.660156 49.738281 117.542969 C 49.496094 117.699219 49.175781 117.707031 48.921875 117.542969 L 42.488281 113.398438 L 42.488281 125.226562 C 42.648438 125.34375 42.761719 125.519531 42.792969 125.730469 L 42.488281 125.773438 L 42.488281 125.777344 L 42.792969 125.730469 C 43.457031 130.191406 50.917969 134.285156 62.589844 137.308594 C 74.449219 140.382812 90.566406 142.273438 108.339844 142.273438 C 126.53125 142.273438 142.992188 140.292969 154.925781 137.089844 C 166.550781 133.96875 173.789062 129.777344 173.9375 125.246094 C 173.925781 125.007812 174.027344 124.789062 174.191406 124.644531 L 174.191406 112.890625 L 170.855469 113.386719 L 169.421875 117.820312 C 169.40625 117.890625 169.375 117.964844 169.335938 118.03125 C 169.125 118.390625 168.660156 118.511719 168.304688 118.296875 C 163.058594 115.207031 154.574219 112.589844 144.003906 110.757812 Z M 42.183594 111.414062 L 42.488281 112.019531 C 42.488281 111.769531 42.367188 111.550781 42.183594 111.414062 " fill-opacity="1" fill-rule="nonzero"/></g><path fill="#ffffff" d="M 96.546875 129.660156 L 108.339844 129.660156 L 108.339844 142.273438 L 96.546875 141.992188 L 96.546875 129.660156 " fill-opacity="1" fill-rule="evenodd"/><path fill="#ffffff" d="M 52.996094 121.992188 L 64.332031 125.082031 L 63.765625 137.617188 L 52.648438 134.0625 L 52.996094 121.992188 " fill-opacity="1" fill-rule="evenodd"/><path fill="#ffffff" d="M 154.007812 125.109375 L 141.996094 127.523438 L 142.5625 139.707031 L 153.683594 137.414062 L 154.007812 125.109375 " fill-opacity="1" fill-rule="evenodd"/><path fill="#01f7a6" d="M 108.339844 129.9375 C 145.027344 129.9375 174.949219 121.890625 174.949219 112.019531 C 174.949219 102.148438 145.027344 94.097656 108.339844 94.097656 C 71.65625 94.097656 41.734375 102.148438 41.734375 112.019531 C 41.734375 121.890625 71.65625 129.9375 108.339844 129.9375 " fill-opacity="1" fill-rule="evenodd"/><g clip-path="url(#1d4165288e)"><path fill="#02002b" d="M 108.339844 93.34375 C 126.796875 93.34375 143.519531 95.359375 155.632812 98.621094 C 168.03125 101.953125 175.703125 106.683594 175.703125 112.019531 C 175.703125 117.351562 168.03125 122.082031 155.632812 125.417969 C 143.519531 128.675781 126.796875 130.691406 108.339844 130.691406 C 89.882812 130.691406 73.160156 128.675781 61.046875 125.417969 C 48.648438 122.082031 40.976562 117.351562 40.976562 112.019531 C 40.976562 106.683594 48.648438 101.953125 61.046875 98.621094 C 73.160156 95.359375 89.882812 93.34375 108.339844 93.34375 Z M 155.242188 100.074219 C 143.25 96.847656 126.667969 94.851562 108.339844 94.851562 C 90.011719 94.851562 73.429688 96.847656 61.4375 100.074219 C 49.730469 103.226562 42.488281 107.457031 42.488281 112.019531 C 42.488281 116.582031 49.730469 120.8125 61.4375 123.960938 C 73.429688 127.1875 90.011719 129.183594 108.339844 129.183594 C 126.667969 129.183594 143.25 127.1875 155.246094 123.960938 C 166.953125 120.8125 174.191406 116.582031 174.191406 112.019531 C 174.191406 107.457031 166.953125 103.226562 155.242188 100.074219 " fill-opacity="1" fill-rule="nonzero"/></g><path fill="#10b981" d="M 108.117188 121.972656 C 129.832031 121.972656 147.542969 117.5 147.542969 112.019531 C 147.542969 106.535156 129.832031 102.0625 108.117188 102.0625 C 86.402344 102.0625 68.691406 106.535156 68.691406 112.019531 C 68.691406 117.5 86.402344 121.972656 108.117188 121.972656 " fill-opacity="1" fill-rule="evenodd"/><path fill="#02002b" d="M 108.117188 101.308594 C 119.070312 101.308594 129.003906 102.433594 136.210938 104.253906 C 143.71875 106.148438 148.363281 108.886719 148.363281 112.019531 C 148.363281 115.148438 143.71875 117.886719 136.210938 119.78125 C 129.003906 121.601562 119.070312 122.730469 108.117188 122.730469 C 97.164062 122.730469 87.230469 121.601562 80.023438 119.78125 C 72.515625 117.886719 67.871094 115.148438 67.871094 112.019531 C 67.871094 108.886719 72.515625 106.148438 80.023438 104.253906 C 87.230469 102.433594 97.164062 101.308594 108.117188 101.308594 Z M 135.78125 105.703125 C 128.71875 103.921875 118.941406 102.820312 108.117188 102.820312 C 97.296875 102.820312 87.515625 103.921875 80.453125 105.703125 C 73.695312 107.410156 69.515625 109.652344 69.515625 112.019531 C 69.515625 114.386719 73.695312 116.625 80.453125 118.332031 C 87.515625 120.117188 97.296875 121.21875 108.117188 121.21875 C 118.941406 121.21875 128.71875 120.117188 135.78125 118.332031 C 142.539062 116.625 146.722656 114.386719 146.722656 112.019531 C 146.722656 109.652344 142.539062 107.410156 135.78125 105.703125 " fill-opacity="1" fill-rule="nonzero"/><path fill="#ffffff" d="M 108.933594 94.59375 L 117.941406 97.953125 L 108.933594 101.3125 L 99.925781 97.953125 L 108.933594 94.59375 " fill-opacity="1" fill-rule="evenodd"/><path fill="#ffffff" d="M 108.933594 122.289062 L 117.941406 125.648438 L 108.933594 129.003906 L 99.925781 125.648438 L 108.933594 122.289062 " fill-opacity="1" fill-rule="evenodd"/><path fill="#ffffff" d="M 56.742188 107.964844 L 65.746094 111.707031 L 56.742188 115.445312 L 47.734375 111.707031 L 56.742188 107.964844 " fill-opacity="1" fill-rule="evenodd"/><path fill="#ffffff" d="M 160.988281 107.964844 L 169.992188 111.707031 L 160.988281 115.445312 L 151.980469 111.707031 L 160.988281 107.964844 " fill-opacity="1" fill-rule="evenodd"/><path fill="#10b981" d="M 117.082031 86.121094 C 143.871094 86.121094 166.945312 90.40625 177.425781 96.578125 L 179.027344 91.636719 L 183.6875 90.949219 L 183.6875 104.132812 L 183.429688 104.144531 C 183.21875 113.992188 153.597656 121.957031 117.082031 121.957031 C 81.34375 121.957031 52.210938 114.328125 50.789062 104.773438 L 50.472656 104.816406 L 50.472656 90.949219 L 58.066406 95.839844 C 69.089844 90.066406 91.378906 86.121094 117.082031 86.121094 " fill-opacity="1" fill-rule="evenodd"/><g clip-path="url(#25876c8e26)"><path fill="#02002b" d="M 117.082031 85.363281 C 130.300781 85.363281 142.628906 86.40625 152.996094 88.203125 C 163.21875 89.976562 171.554688 92.488281 176.996094 95.46875 L 178.308594 91.40625 L 179.027344 91.636719 L 178.308594 91.40625 C 178.402344 91.109375 178.664062 90.914062 178.953125 90.886719 L 183.578125 90.203125 C 183.988281 90.140625 184.375 90.425781 184.433594 90.839844 C 184.4375 90.875 184.441406 90.914062 184.441406 90.949219 L 184.441406 104.132812 C 184.441406 104.382812 184.324219 104.601562 184.140625 104.738281 C 183.5 109.804688 175.941406 114.285156 164.054688 117.476562 C 151.996094 120.714844 135.398438 122.714844 117.082031 122.714844 C 99.195312 122.714844 82.9375 120.804688 70.953125 117.695312 C 59.1875 114.648438 51.460938 110.367188 50.171875 105.507812 C 49.941406 105.40625 49.765625 105.191406 49.726562 104.925781 C 49.722656 104.886719 49.71875 104.851562 49.71875 104.816406 L 49.71875 90.949219 C 49.71875 90.53125 50.058594 90.195312 50.472656 90.195312 C 50.640625 90.195312 50.800781 90.25 50.925781 90.34375 L 58.113281 94.972656 C 63.785156 92.089844 72.226562 89.671875 82.460938 87.984375 C 92.558594 86.320312 104.414062 85.363281 117.082031 85.363281 Z M 152.742188 89.691406 C 142.460938 87.90625 130.222656 86.875 117.082031 86.875 C 104.480469 86.875 92.710938 87.824219 82.703125 89.472656 C 72.421875 91.164062 64.011719 93.589844 58.480469 96.472656 C 58.238281 96.628906 57.917969 96.640625 57.660156 96.472656 L 51.226562 92.332031 L 51.226562 104.15625 C 51.386719 104.273438 51.503906 104.449219 51.535156 104.660156 L 51.226562 104.707031 L 51.535156 104.660156 C 52.199219 109.121094 59.660156 113.214844 71.332031 116.238281 C 83.1875 119.316406 99.308594 121.203125 117.082031 121.203125 C 135.269531 121.203125 151.730469 119.222656 163.664062 116.019531 C 175.289062 112.898438 182.53125 108.707031 182.675781 104.175781 C 182.667969 103.9375 182.765625 103.722656 182.933594 103.578125 L 182.933594 91.824219 L 179.597656 92.316406 L 178.160156 96.75 C 178.144531 96.824219 178.117188 96.894531 178.078125 96.960938 C 177.867188 97.320312 177.402344 97.441406 177.042969 97.230469 L 177.046875 97.226562 C 171.800781 94.140625 163.316406 91.523438 152.742188 89.691406 Z M 50.925781 90.34375 L 51.226562 90.949219 C 51.226562 90.703125 51.109375 90.480469 50.925781 90.34375 " fill-opacity="1" fill-rule="nonzero"/></g><path fill="#ffffff" d="M 105.289062 108.589844 L 117.082031 108.589844 L 117.082031 121.203125 L 105.289062 120.921875 L 105.289062 108.589844 " fill-opacity="1" fill-rule="evenodd"/><path fill="#ffffff" d="M 61.738281 100.921875 L 73.070312 104.011719 L 72.507812 116.546875 L 61.390625 112.996094 L 61.738281 100.921875 " fill-opacity="1" fill-rule="evenodd"/><path fill="#ffffff" d="M 162.75 104.039062 L 150.738281 106.453125 L 151.300781 118.640625 L 162.425781 116.34375 L 162.75 104.039062 " fill-opacity="1" fill-rule="evenodd"/><path fill="#01f7a6" d="M 117.078125 108.871094 C 153.765625 108.871094 183.6875 100.820312 183.6875 90.949219 C 183.6875 81.078125 153.765625 73.027344 117.078125 73.027344 C 80.394531 73.027344 50.472656 81.078125 50.472656 90.949219 C 50.472656 100.820312 80.394531 108.871094 117.078125 108.871094 " fill-opacity="1" fill-rule="evenodd"/><g clip-path="url(#f6daaaf737)"><path fill="#02002b" d="M 117.078125 72.273438 C 135.535156 72.273438 152.257812 74.289062 164.371094 77.550781 C 176.773438 80.886719 184.441406 85.617188 184.441406 90.949219 C 184.441406 96.28125 176.773438 101.011719 164.371094 104.347656 C 152.257812 107.609375 135.535156 109.625 117.078125 109.625 C 98.621094 109.625 81.902344 107.609375 69.789062 104.347656 C 57.386719 101.011719 49.71875 96.28125 49.71875 90.949219 C 49.71875 85.617188 57.386719 80.886719 69.789062 77.550781 C 81.902344 74.289062 98.621094 72.273438 117.078125 72.273438 Z M 163.984375 79.007812 C 151.992188 75.78125 135.410156 73.785156 117.078125 73.785156 C 98.75 73.785156 82.167969 75.78125 70.175781 79.007812 C 58.46875 82.15625 51.226562 86.386719 51.226562 90.949219 C 51.226562 95.511719 58.46875 99.742188 70.175781 102.894531 C 82.167969 106.117188 98.75 108.113281 117.078125 108.113281 C 135.410156 108.113281 151.992188 106.117188 163.984375 102.894531 C 175.691406 99.742188 182.933594 95.511719 182.933594 90.949219 C 182.933594 86.386719 175.691406 82.15625 163.984375 79.007812 " fill-opacity="1" fill-rule="nonzero"/></g><path fill="#10b981" d="M 116.855469 100.90625 C 138.574219 100.90625 156.28125 96.433594 156.28125 90.949219 C 156.28125 85.464844 138.574219 80.992188 116.855469 80.992188 C 95.140625 80.992188 77.433594 85.464844 77.433594 90.949219 C 77.433594 96.433594 95.140625 100.90625 116.855469 100.90625 " fill-opacity="1" fill-rule="evenodd"/><path fill="#02002b" d="M 116.855469 80.238281 C 127.808594 80.238281 137.742188 81.363281 144.949219 83.183594 C 152.460938 85.082031 157.105469 87.820312 157.105469 90.949219 C 157.105469 94.078125 152.460938 96.820312 144.949219 98.714844 C 137.742188 100.535156 127.808594 101.660156 116.855469 101.660156 C 105.90625 101.660156 95.972656 100.535156 88.765625 98.714844 C 81.253906 96.820312 76.609375 94.078125 76.609375 90.949219 C 76.609375 87.820312 81.253906 85.082031 88.765625 83.183594 C 95.972656 81.363281 105.90625 80.238281 116.855469 80.238281 Z M 144.519531 84.632812 C 137.460938 82.851562 127.679688 81.75 116.855469 81.75 C 106.035156 81.75 96.257812 82.851562 89.195312 84.632812 C 82.433594 86.34375 78.253906 88.582031 78.253906 90.949219 C 78.253906 93.316406 82.433594 95.558594 89.195312 97.265625 C 96.257812 99.046875 106.035156 100.152344 116.855469 100.152344 C 127.679688 100.152344 137.460938 99.046875 144.519531 97.265625 C 151.28125 95.558594 155.460938 93.316406 155.460938 90.949219 C 155.460938 88.582031 151.28125 86.34375 144.519531 84.632812 " fill-opacity="1" fill-rule="nonzero"/><path fill="#ffffff" d="M 117.671875 73.527344 L 126.679688 76.882812 L 117.671875 80.242188 L 108.667969 76.882812 L 117.671875 73.527344 " fill-opacity="1" fill-rule="evenodd"/><path fill="#ffffff" d="M 117.671875 101.21875 L 126.679688 104.578125 L 117.671875 107.933594 L 108.667969 104.578125 L 117.671875 101.21875 " fill-opacity="1" fill-rule="evenodd"/><path fill="#ffffff" d="M 65.480469 86.898438 L 74.488281 90.636719 L 65.480469 94.378906 L 56.472656 90.636719 L 65.480469 86.898438 " fill-opacity="1" fill-rule="evenodd"/><path fill="#ffffff" d="M 169.726562 86.898438 L 178.734375 90.636719 L 169.726562 94.378906 L 160.71875 90.636719 L 169.726562 86.898438 " fill-opacity="1" fill-rule="evenodd"/><path fill="#10b981" d="M 108.339844 71.609375 C 135.128906 71.609375 158.207031 75.894531 168.6875 82.066406 L 170.285156 77.128906 L 174.949219 76.4375 L 174.949219 89.625 L 174.691406 89.632812 C 174.480469 99.484375 144.859375 107.449219 108.339844 107.449219 C 72.605469 107.449219 43.46875 99.820312 42.046875 90.261719 L 41.734375 90.304688 L 41.734375 76.4375 L 49.328125 81.328125 C 60.347656 75.554688 82.636719 71.609375 108.339844 71.609375 " fill-opacity="1" fill-rule="evenodd"/><g clip-path="url(#6070782120)"><path fill="#02002b" d="M 108.339844 70.855469 C 121.5625 70.855469 133.886719 71.898438 144.253906 73.691406 C 154.480469 75.464844 162.816406 77.980469 168.253906 80.957031 L 169.566406 76.898438 L 170.285156 77.128906 L 169.566406 76.894531 C 169.660156 76.601562 169.921875 76.402344 170.210938 76.375 L 174.835938 75.691406 C 175.25 75.632812 175.632812 75.917969 175.695312 76.328125 C 175.699219 76.367188 175.703125 76.402344 175.703125 76.4375 L 175.703125 89.625 C 175.703125 89.871094 175.582031 90.089844 175.398438 90.226562 C 174.757812 95.292969 167.203125 99.773438 155.3125 102.964844 C 143.257812 106.203125 126.65625 108.203125 108.339844 108.203125 C 90.453125 108.203125 74.199219 106.292969 62.210938 103.1875 C 50.445312 100.136719 42.722656 95.855469 41.433594 91 C 41.199219 90.898438 41.027344 90.683594 40.984375 90.414062 C 40.980469 90.378906 40.976562 90.339844 40.976562 90.304688 L 40.976562 76.4375 C 40.976562 76.023438 41.316406 75.683594 41.734375 75.683594 C 41.902344 75.683594 42.058594 75.742188 42.183594 75.832031 L 49.371094 80.460938 C 55.046875 77.578125 63.488281 75.160156 73.722656 73.476562 C 83.820312 71.8125 95.671875 70.855469 108.339844 70.855469 Z M 144.003906 75.179688 C 133.722656 73.398438 121.484375 72.363281 108.339844 72.363281 C 95.738281 72.363281 83.96875 73.3125 73.964844 74.960938 C 63.683594 76.652344 55.269531 79.082031 49.738281 81.960938 C 49.496094 82.117188 49.175781 82.128906 48.921875 81.960938 L 42.488281 77.820312 L 42.488281 89.648438 C 42.648438 89.761719 42.761719 89.941406 42.792969 90.148438 L 42.488281 90.195312 L 42.792969 90.152344 C 43.457031 94.613281 50.917969 98.703125 62.589844 101.730469 C 74.449219 104.804688 90.566406 106.695312 108.339844 106.695312 C 126.53125 106.695312 142.992188 104.714844 154.925781 101.507812 C 166.550781 98.386719 173.789062 94.195312 173.9375 89.667969 L 173.9375 89.664062 C 173.925781 89.425781 174.027344 89.210938 174.191406 89.066406 L 174.191406 77.3125 L 170.855469 77.804688 L 169.421875 82.242188 C 169.40625 82.3125 169.375 82.382812 169.335938 82.449219 C 169.125 82.8125 168.660156 82.929688 168.304688 82.71875 L 168.304688 82.714844 C 163.058594 79.628906 154.574219 77.011719 144.003906 75.179688 Z M 42.183594 75.832031 L 42.488281 76.4375 C 42.488281 76.191406 42.367188 75.96875 42.183594 75.832031 " fill-opacity="1" fill-rule="nonzero"/></g><path fill="#ffffff" d="M 96.546875 94.078125 L 108.339844 94.078125 L 108.339844 106.695312 L 96.546875 106.410156 L 96.546875 94.078125 " fill-opacity="1" fill-rule="evenodd"/><path fill="#ffffff" d="M 52.996094 86.414062 L 64.332031 89.5 L 63.765625 102.035156 L 52.648438 98.484375 L 52.996094 86.414062 " fill-opacity="1" fill-rule="evenodd"/><path fill="#ffffff" d="M 154.007812 89.53125 L 141.996094 91.945312 L 142.5625 104.128906 L 153.683594 101.832031 L 154.007812 89.53125 " fill-opacity="1" fill-rule="evenodd"/><path fill="#01f7a6" d="M 108.339844 94.359375 C 145.027344 94.359375 174.949219 86.308594 174.949219 76.4375 C 174.949219 66.566406 145.027344 58.519531 108.339844 58.519531 C 71.65625 58.519531 41.734375 66.566406 41.734375 76.4375 C 41.734375 86.308594 71.65625 94.359375 108.339844 94.359375 " fill-opacity="1" fill-rule="evenodd"/><g clip-path="url(#11a59722bd)"><path fill="#02002b" d="M 108.339844 57.765625 C 126.796875 57.765625 143.519531 59.78125 155.632812 63.039062 C 168.03125 66.375 175.703125 71.105469 175.703125 76.4375 C 175.703125 81.773438 168.03125 86.503906 155.632812 89.839844 C 143.519531 93.097656 126.796875 95.113281 108.339844 95.113281 C 89.882812 95.113281 73.160156 93.097656 61.046875 89.839844 C 48.648438 86.503906 40.976562 81.773438 40.976562 76.4375 C 40.976562 71.105469 48.648438 66.375 61.046875 63.039062 C 73.160156 59.78125 89.882812 57.765625 108.339844 57.765625 Z M 155.242188 64.496094 C 143.25 61.269531 126.667969 59.273438 108.339844 59.273438 C 90.011719 59.273438 73.429688 61.269531 61.4375 64.496094 C 49.730469 67.644531 42.488281 71.875 42.488281 76.4375 C 42.488281 81.003906 49.730469 85.234375 61.4375 88.382812 C 73.429688 91.609375 90.011719 93.605469 108.339844 93.605469 C 126.667969 93.605469 143.25 91.609375 155.246094 88.382812 C 166.953125 85.234375 174.191406 81.003906 174.191406 76.4375 C 174.191406 71.875 166.953125 67.644531 155.242188 64.496094 " fill-opacity="1" fill-rule="nonzero"/></g><path fill="#10b981" d="M 108.117188 86.394531 C 129.832031 86.394531 147.542969 81.921875 147.542969 76.4375 C 147.542969 70.957031 129.832031 66.484375 108.117188 66.484375 C 86.402344 66.484375 68.691406 70.957031 68.691406 76.4375 C 68.691406 81.921875 86.402344 86.394531 108.117188 86.394531 " fill-opacity="1" fill-rule="evenodd"/><path fill="#02002b" d="M 108.117188 65.730469 C 119.070312 65.730469 129.003906 66.855469 136.210938 68.675781 C 143.71875 70.570312 148.363281 73.308594 148.363281 76.4375 C 148.363281 79.570312 143.71875 82.308594 136.210938 84.203125 C 129.003906 86.023438 119.070312 87.148438 108.117188 87.148438 C 97.164062 87.148438 87.230469 86.023438 80.023438 84.203125 C 72.515625 82.308594 67.871094 79.570312 67.871094 76.4375 C 67.871094 73.308594 72.515625 70.570312 80.023438 68.675781 C 87.230469 66.855469 97.164062 65.730469 108.117188 65.730469 Z M 135.78125 70.125 C 128.71875 68.339844 118.941406 67.238281 108.117188 67.238281 C 97.296875 67.238281 87.515625 68.339844 80.453125 70.125 C 73.695312 71.832031 69.515625 74.070312 69.515625 76.4375 C 69.515625 78.804688 73.695312 81.046875 80.453125 82.753906 C 87.515625 84.535156 97.296875 85.640625 108.117188 85.640625 C 118.941406 85.640625 128.71875 84.535156 135.78125 82.753906 C 142.539062 81.046875 146.722656 78.804688 146.722656 76.4375 C 146.722656 74.070312 142.539062 71.832031 135.78125 70.125 " fill-opacity="1" fill-rule="nonzero"/><path fill="#ffffff" d="M 108.933594 59.015625 L 117.941406 62.375 L 108.933594 65.730469 L 99.925781 62.375 L 108.933594 59.015625 " fill-opacity="1" fill-rule="evenodd"/><path fill="#ffffff" d="M 108.933594 86.707031 L 117.941406 90.066406 L 108.933594 93.425781 L 99.925781 90.066406 L 108.933594 86.707031 " fill-opacity="1" fill-rule="evenodd"/><path fill="#ffffff" d="M 56.742188 72.386719 L 65.746094 76.128906 L 56.742188 79.867188 L 47.734375 76.128906 L 56.742188 72.386719 " fill-opacity="1" fill-rule="evenodd"/><path fill="#ffffff" d="M 160.988281 72.386719 L 169.992188 76.128906 L 160.988281 79.867188 L 151.980469 76.128906 L 160.988281 72.386719 " fill-opacity="1" fill-rule="evenodd"/></svg>